<svg width="150" height="160" viewBox="0 0 150 160" fill="none" xmlns="http://www.w3.org/2000/svg">
<mask id="mask0_14_220" style="mask-type:luminance" maskUnits="userSpaceOnUse" x="14" y="14" width="123" height="132">
<path d="M14 14H137V146H14V14Z" fill="white"/>
</mask>
<g mask="url(#mask0_14_220)">
<path d="M129.081 90.2608H91.1529C91.034 89.3998 90.8479 88.5593 90.5946 87.7343C90.3413 86.9041 90.0208 86.1049 89.6382 85.3263C89.2505 84.5529 88.806 83.8104 88.2994 83.1091C87.7979 82.4079 87.2345 81.7479 86.6245 81.1343C86.0093 80.5258 85.3477 79.9638 84.6446 79.4637C83.9416 78.9583 83.1972 78.5098 82.4218 78.1282C81.6412 77.7466 80.84 77.4269 80.0077 77.1743C79.1806 76.9216 78.3328 76.736 77.4747 76.6174V32.846C77.8417 32.7583 78.2036 32.6501 78.5603 32.5212C78.9118 32.3922 79.2581 32.2427 79.5942 32.0674C79.9302 31.8972 80.2507 31.7065 80.566 31.4951C80.8762 31.2837 81.176 31.0568 81.4603 30.8093C81.7446 30.5618 82.0134 30.2988 82.2667 30.0152C82.52 29.7368 82.7578 29.4429 82.9697 29.1335C83.1869 28.8293 83.3885 28.5096 83.5642 28.1744C83.74 27.8444 83.9002 27.499 84.0346 27.1483C84.1742 26.7977 84.2879 26.4419 84.381 26.0758C84.474 25.7097 84.5412 25.3437 84.5878 24.9672C84.6395 24.596 84.6653 24.2196 84.6653 23.8432C84.6653 23.4668 84.6446 23.0904 84.6033 22.7191C84.5619 22.3427 84.4947 21.9766 84.4068 21.6105C84.319 21.2444 84.2052 20.8835 84.076 20.5329C83.9416 20.1771 83.7865 19.8368 83.6159 19.5016C83.4402 19.1665 83.2489 18.8416 83.0318 18.5322C82.8198 18.2229 82.5872 17.9238 82.3391 17.6454C82.091 17.3618 81.8221 17.0937 81.543 16.8462C81.2587 16.5935 80.964 16.3615 80.6539 16.1449C80.3437 15.9335 80.0232 15.7376 79.6872 15.5622C79.3564 15.3869 79.01 15.2322 78.6585 15.0982C78.307 14.9641 77.9451 14.8507 77.5781 14.763C77.2111 14.6702 76.844 14.6032 76.4667 14.5568C76.0945 14.5104 75.7171 14.4897 75.3398 14.4897C74.9624 14.4897 74.585 14.5104 74.2128 14.5568C73.8355 14.6032 73.4684 14.6702 73.1014 14.763C72.7344 14.8507 72.3725 14.9641 72.021 15.0982C71.6695 15.2322 71.3232 15.3869 70.9923 15.5622C70.6563 15.7376 70.3358 15.9335 70.0256 16.1449C69.7155 16.3615 69.4208 16.5935 69.1365 16.8462C68.8574 17.0937 68.5886 17.3618 68.3404 17.6454C68.0923 17.9238 67.8597 18.2229 67.6477 18.5322C67.4306 18.8416 67.2394 19.1665 67.0636 19.5016C66.893 19.8368 66.7379 20.1771 66.6035 20.5329C66.4743 20.8835 66.3606 21.2444 66.2727 21.6105C66.1848 21.9766 66.1176 22.3427 66.0762 22.7191C66.0349 23.0904 66.0142 23.4668 66.0142 23.8432C66.0142 24.2196 66.0401 24.596 66.0918 24.9672C66.1383 25.3437 66.2055 25.7097 66.2985 26.0758C66.3916 26.4419 66.5053 26.7977 66.6449 27.1483C66.7793 27.499 66.9395 27.8444 67.1153 28.1744C67.291 28.5096 67.4927 28.8293 67.7098 29.1335C67.9217 29.4429 68.1595 29.7368 68.4128 30.0152C68.6661 30.2988 68.9349 30.5618 69.2192 30.8093C69.5035 31.0568 69.8034 31.2837 70.1135 31.4951C70.4289 31.7065 70.7494 31.8972 71.0854 32.0674C71.4214 32.2427 71.7677 32.3922 72.1192 32.5212C72.4759 32.6501 72.8378 32.7583 73.2048 32.846V76.6174C72.3415 76.736 71.4989 76.9165 70.6666 77.1691C69.8344 77.4218 69.028 77.7415 68.2526 78.1282C67.472 78.5098 66.7276 78.9532 66.0246 79.4585C65.3163 79.9638 64.6547 80.5207 64.0395 81.1343C63.4244 81.7427 62.8661 82.4027 62.3543 83.104C61.8477 83.8104 61.4031 84.5477 61.0154 85.3212C60.6277 86.0998 60.3072 86.9041 60.0488 87.7291C59.7955 88.5593 59.6094 89.3998 59.4905 90.2608H21.5628C21.0614 90.2608 20.5703 90.3124 20.0843 90.4104C19.5933 90.5135 19.1228 90.6579 18.6628 90.8487C18.2027 91.0394 17.7685 91.2766 17.3549 91.5499C16.9414 91.8284 16.564 92.1429 16.2125 92.4935C15.861 92.8441 15.5456 93.2309 15.2717 93.6434C14.9977 94.0559 14.7651 94.489 14.5738 94.9479C14.3825 95.4068 14.2378 95.8812 14.1447 96.3659C14.0465 96.8557 14 97.3455 14 97.8405V126.061C14 126.556 14.0517 127.046 14.1499 127.53C14.2481 128.015 14.3929 128.484 14.5841 128.943C14.7754 129.397 15.008 129.83 15.282 130.242C15.5612 130.655 15.8713 131.031 16.2228 131.382C16.5743 131.733 16.9569 132.047 17.3704 132.32C17.7788 132.594 18.213 132.831 18.6731 133.022C19.128 133.212 19.6036 133.357 20.0895 133.455C20.5754 133.553 21.0665 133.599 21.5628 133.604H26.8511V138.296C26.8511 138.755 26.8976 139.214 26.9855 139.663C27.0785 140.117 27.2077 140.555 27.3887 140.983C27.5644 141.406 27.7815 141.808 28.04 142.195C28.2985 142.576 28.5931 142.932 28.9188 143.257C29.2445 143.582 29.6012 143.87 29.9889 144.123C30.3714 144.381 30.7798 144.592 31.2088 144.768C31.6327 144.943 32.0773 145.077 32.527 145.165C32.9819 145.252 33.442 145.294 33.9021 145.288H116.777C117.232 145.283 117.682 145.232 118.127 145.139C118.571 145.041 119.005 144.907 119.419 144.731C119.838 144.551 120.236 144.334 120.613 144.082C120.99 143.824 121.342 143.54 121.662 143.216C121.983 142.896 122.267 142.545 122.521 142.169C122.774 141.792 122.991 141.395 123.167 140.973C123.343 140.555 123.472 140.127 123.565 139.678C123.658 139.235 123.704 138.786 123.71 138.333V133.646H128.962C129.468 133.651 129.965 133.609 130.461 133.517C130.957 133.424 131.438 133.285 131.908 133.099C132.373 132.913 132.818 132.681 133.242 132.408C133.666 132.13 134.053 131.815 134.415 131.464C134.772 131.114 135.093 130.727 135.377 130.309C135.661 129.892 135.899 129.454 136.09 128.989C136.287 128.525 136.431 128.046 136.535 127.556C136.633 127.061 136.68 126.566 136.68 126.061V97.8405C136.68 97.3455 136.633 96.8505 136.535 96.3607C136.437 95.876 136.292 95.4016 136.101 94.9427C135.914 94.4787 135.677 94.0455 135.403 93.6279C135.124 93.2154 134.808 92.8338 134.457 92.478C134.1 92.1274 133.717 91.8129 133.304 91.5396C132.89 91.2612 132.451 91.0291 131.991 90.8383C131.526 90.6476 131.05 90.5032 130.564 90.4052C130.073 90.3073 129.577 90.2608 129.081 90.2608ZM119.559 133.646V138.333C119.559 138.699 119.486 139.049 119.347 139.39C119.202 139.725 119 140.024 118.742 140.282C118.478 140.539 118.178 140.735 117.837 140.875C117.496 141.009 117.144 141.076 116.777 141.071H33.9021C33.5351 141.076 33.1835 141.009 32.8424 140.875C32.5012 140.735 32.2014 140.539 31.9377 140.282C31.6792 140.024 31.4776 139.725 31.3329 139.39C31.1933 139.049 31.121 138.699 31.121 138.333V133.646H119.559ZM75.3191 80.7218C75.9963 80.7269 76.6683 80.7837 77.3403 80.9023C78.0072 81.0208 78.6585 81.1962 79.2943 81.423C79.9353 81.6551 80.5453 81.9387 81.1346 82.2738C81.7239 82.609 82.2771 82.9957 82.7992 83.4237C83.3213 83.8568 83.802 84.3312 84.2414 84.8468C84.6808 85.3624 85.0737 85.909 85.4149 86.4916C85.7612 87.0743 86.0507 87.6827 86.2937 88.3118C86.5314 88.946 86.7124 89.5957 86.8416 90.2608H63.8017C63.9258 89.5957 64.1119 88.946 64.3497 88.3118C64.5875 87.6827 64.877 87.0743 65.2233 86.4916C65.5696 85.909 65.9625 85.3624 66.4019 84.8468C66.8413 84.3312 67.3221 83.8568 67.839 83.4237C68.3611 82.9957 68.9194 82.609 69.5087 82.2738C70.0928 81.9387 70.708 81.6551 71.3438 81.423C71.9797 81.1962 72.6362 81.0208 73.303 80.9023C73.9699 80.7837 74.6419 80.7269 75.3191 80.7218ZM70.3048 23.8535C70.3048 23.1935 70.434 22.5541 70.6873 21.9405C70.9406 21.3269 71.3025 20.7855 71.7729 20.3163C72.2433 19.8471 72.7861 19.4862 73.4012 19.2335C74.0164 18.9808 74.6574 18.8519 75.3191 18.8519C75.9859 18.8519 76.6269 18.9808 77.2421 19.2335C77.8521 19.4862 78.3949 19.8471 78.8653 20.3163C79.3357 20.7855 79.6975 21.3269 79.956 21.9405C80.2093 22.5541 80.3334 23.1935 80.3334 23.8535C80.3385 24.5187 80.2093 25.158 79.956 25.7716C79.7027 26.3852 79.3409 26.9266 78.8704 27.3958C78.4 27.8651 77.8572 28.226 77.2421 28.4838C76.6269 28.7365 75.9859 28.8654 75.3191 28.8654C74.6522 28.8654 74.0164 28.7365 73.4012 28.4838C72.7861 28.226 72.2433 27.8651 71.7729 27.3958C71.3025 26.9266 70.9406 26.3852 70.6873 25.7716C70.4289 25.158 70.3048 24.5187 70.3048 23.8535ZM132.373 126.061C132.373 126.494 132.286 126.917 132.12 127.319C131.955 127.721 131.717 128.077 131.407 128.381C131.097 128.69 130.745 128.928 130.342 129.093C129.939 129.263 129.515 129.345 129.081 129.345H21.5628C21.1234 129.34 20.7098 129.252 20.3066 129.082C19.9034 128.917 19.5519 128.68 19.2417 128.371C18.9367 128.066 18.699 127.711 18.5284 127.314C18.3629 126.911 18.2751 126.494 18.2699 126.061V97.8405C18.2699 97.4074 18.3526 96.9846 18.518 96.5773C18.6835 96.1751 18.9212 95.8193 19.2314 95.5048C19.5364 95.1954 19.8931 94.953 20.2963 94.7829C20.6995 94.6127 21.1234 94.5251 21.5628 94.5199H97.3406V110.427C97.3406 110.711 97.3975 110.989 97.506 111.252C97.6146 111.515 97.7697 111.747 97.9713 111.948C98.1729 112.149 98.4055 112.304 98.6743 112.412C98.9379 112.52 99.2119 112.577 99.4962 112.577C99.7805 112.572 100.049 112.515 100.308 112.402C100.566 112.288 100.799 112.134 100.995 111.933C101.192 111.731 101.347 111.499 101.45 111.242C101.559 110.979 101.611 110.711 101.611 110.427V94.5199H108.744V110.427C108.703 110.736 108.724 111.035 108.817 111.334C108.904 111.634 109.049 111.896 109.256 112.129C109.463 112.366 109.706 112.546 109.99 112.675C110.269 112.804 110.569 112.866 110.879 112.866C111.189 112.866 111.489 112.804 111.768 112.675C112.053 112.546 112.296 112.366 112.502 112.129C112.709 111.896 112.854 111.634 112.942 111.334C113.035 111.035 113.055 110.736 113.014 110.427V94.5199H120.148V110.427C120.107 110.736 120.127 111.035 120.215 111.334C120.308 111.634 120.453 111.896 120.66 112.129C120.861 112.366 121.109 112.546 121.389 112.675C121.673 112.804 121.973 112.866 122.283 112.866C122.593 112.866 122.888 112.804 123.172 112.675C123.456 112.546 123.699 112.366 123.906 112.129C124.108 111.896 124.258 111.634 124.345 111.334C124.433 111.035 124.459 110.736 124.418 110.427V94.5199H129.081C129.52 94.5199 129.944 94.6024 130.347 94.7726C130.755 94.9427 131.112 95.1851 131.422 95.4944C131.732 95.809 131.965 96.1648 132.13 96.5721C132.296 96.9794 132.379 97.4023 132.373 97.8405V126.061Z" fill="#00BF63"/>
</g>
</svg>
