<svg width="150" height="160" viewBox="0 0 150 160" fill="none" xmlns="http://www.w3.org/2000/svg">
<path d="M87.5 46.8804C87.5 44.6304 85.6719 42.8022 83.4219 42.8022H79.3438V50.9585H83.4219C85.6719 50.9585 87.5 49.1304 87.5 46.8804Z" fill="#00BF63"/>
<mask id="mask0_14_161" style="mask-type:luminance" maskUnits="userSpaceOnUse" x="18" y="6" width="115" height="148">
<path d="M18 6H132.323V153.781H18V6Z" fill="white"/>
</mask>
<g mask="url(#mask0_14_161)">
<path d="M111.156 144.391C101.51 147.609 88.765 149.38 75.265 149.38C61.765 149.38 49.015 147.609 39.3691 144.391C25.2181 139.677 22.2493 133.411 22.2493 128.99C22.2493 117.698 40.9941 111.182 61.541 109.234C58.7546 105.568 55.5983 101.958 52.3796 98.2813C41.5775 85.9479 30.4056 73.1927 30.4056 55.0365C30.4056 30.3021 50.5306 10.1771 75.265 10.1771C99.9994 10.1771 120.124 30.3021 120.124 55.0365C120.124 73.1927 108.952 85.9479 98.1504 98.2813C94.9316 101.958 91.7754 105.568 88.9889 109.234C109.536 111.182 128.281 117.698 128.281 128.99C128.281 133.411 125.312 139.677 111.156 144.391ZM96.9785 106.005C98.4004 104.333 99.8587 102.672 101.291 101.036C112.077 88.7188 124.301 74.7656 124.301 55.0365C124.301 28 102.301 6 75.265 6C48.2233 6 26.2285 28 26.2285 55.0365C26.2285 74.7604 38.4525 88.7188 49.2389 101.036C50.6764 102.672 52.1296 104.339 53.5514 106.005C31.1764 109.417 18.0723 117.792 18.0723 128.99C18.0723 134.786 21.5358 142.854 38.0514 148.354C48.1191 151.708 61.3327 153.557 75.265 153.557C89.1973 153.557 102.411 151.708 112.479 148.354C128.989 142.854 132.458 134.786 132.458 128.99C132.458 117.792 119.348 109.417 96.9785 106.005Z" fill="#00BF63"/>
</g>
<path d="M110.484 122C103.557 119.39 94.1667 117.64 83.8385 117.01C81.0781 122.01 79.3438 127.265 79.3438 133.068H71.1875C71.1875 127.265 69.4479 122.01 66.6927 117.01C56.3594 117.64 46.974 119.39 40.0469 122C32.4375 124.864 30.4062 127.739 30.4062 128.989C30.4062 130.312 32.8177 133.609 41.9479 136.656C50.7865 139.599 62.6198 141.224 75.2656 141.224C87.9115 141.224 99.7396 139.599 108.578 136.656C117.714 133.609 120.125 130.312 120.125 128.989C120.125 127.739 118.094 124.864 110.484 122Z" fill="#00BF63"/>
<path d="M71.1875 34.646H83.4219C90.1667 34.646 95.6563 40.1356 95.6563 46.8804C95.6563 53.6252 90.1667 59.1148 83.4219 59.1148H79.3438V75.4273H71.1875V34.646ZM63.0313 75.4273H54.875V34.646H63.0313V75.4273ZM92.0104 92.9116C102.276 81.1929 111.969 70.1252 111.969 55.0366C111.969 34.797 95.5052 18.3335 75.2656 18.3335C55.026 18.3335 38.5625 34.797 38.5625 55.0366C38.5625 70.1252 48.2552 81.1929 58.5156 92.9116C64.8177 100.104 71.25 107.443 75.2656 115.849C79.2813 107.443 85.7135 100.104 92.0104 92.9116Z" fill="#00BF63"/>
</svg>
