<svg width="150" height="160" viewBox="0 0 150 160" fill="none" xmlns="http://www.w3.org/2000/svg">
<mask id="mask0_14_143" style="mask-type:luminance" maskUnits="userSpaceOnUse" x="14" y="6" width="122" height="148">
<path d="M14.4766 6.02588H135.523V153.974H14.4766V6.02588Z" fill="white"/>
</mask>
<g mask="url(#mask0_14_143)">
<path d="M121.347 119.489C114.128 116.604 104.342 114.443 93.4616 113.297C107.54 94.3019 123.128 70.0936 123.128 54.2603C123.123 27.6613 101.488 6.02588 74.8939 6.02588C48.3001 6.02588 26.6595 27.6613 26.6595 54.2603C26.6595 64.0155 32.7949 78.3384 44.8939 96.8332C48.6022 102.51 52.5605 108.099 56.3887 113.286C45.4928 114.432 35.6855 116.599 28.4616 119.479C16.946 124.078 14.5293 129.349 14.5293 132.963C14.5293 146.359 45.6283 153.583 74.8939 153.583C104.154 153.583 135.258 146.359 135.258 132.963C135.258 129.354 132.842 124.083 121.347 119.489ZM31.2741 54.2603C31.2741 30.2082 50.8418 10.6353 74.8939 10.6353C98.946 10.6353 118.514 30.2082 118.514 54.2603C118.514 63.1978 112.712 76.604 101.274 94.104C92.2064 107.974 81.6751 121.234 74.8939 129.693C61.3678 112.792 31.2741 74.3748 31.2741 54.2603ZM73.097 134.818C73.5345 135.364 74.196 135.682 74.8939 135.682C75.5918 135.682 76.2533 135.364 76.6908 134.818L77.373 133.974C78.847 132.135 80.5345 130.026 82.3783 127.708C93.8366 128.682 98.4251 131.484 98.8001 132.437C98.6074 132.896 97.0814 134.312 92.1491 135.599C87.4668 136.818 81.3418 137.484 74.8939 137.484C68.446 137.484 62.3158 136.818 57.6387 135.599C52.7064 134.312 51.1751 132.896 50.9876 132.437C51.3626 131.484 55.9564 128.682 67.4251 127.708C69.5814 130.437 71.5085 132.844 73.097 134.818ZM115.253 143.713C104.503 147.104 90.1699 148.974 74.8939 148.974C59.6126 148.974 45.2793 147.104 34.5345 143.713C24.8939 140.677 19.1387 136.656 19.1387 132.963C19.1387 127.088 34.2533 119.818 59.6178 117.609C61.1491 119.64 62.6439 121.583 64.0762 123.427C57.1387 124.297 46.3678 126.583 46.3678 132.443C46.3678 140.062 64.3001 142.099 74.8939 142.099C85.4876 142.099 103.42 140.062 103.42 132.443C103.42 126.594 92.6699 124.302 85.7428 123.432C87.1803 121.583 88.6855 119.64 90.222 117.614C115.555 119.828 130.649 127.094 130.649 132.963C130.649 136.656 124.894 140.677 115.253 143.713ZM99.4512 54.203C99.4512 40.6613 88.4355 29.6457 74.8939 29.6457C61.3522 29.6457 50.3366 40.6613 50.3366 54.203C50.3366 67.7446 61.3522 78.7603 74.8939 78.7603C88.4355 78.7603 99.4512 67.7446 99.4512 54.203ZM74.8939 74.1509C63.8939 74.1509 54.946 65.203 54.946 54.203C54.946 43.203 63.8939 34.255 74.8939 34.255C85.8887 34.255 94.8366 43.203 94.8366 54.203C94.8366 65.203 85.8939 74.1509 74.8939 74.1509Z" fill="#00BF63"/>
</g>
</svg>
