<svg width="500" height="500" viewBox="0 0 500 500" fill="none" xmlns="http://www.w3.org/2000/svg">
<mask id="mask0_23_37" style="mask-type:luminance" maskUnits="userSpaceOnUse" x="66" y="42" width="367" height="415">
<path d="M66 42H433V457H66V42Z" fill="white"/>
</mask>
<g mask="url(#mask0_23_37)">
<path d="M249.5 457C247.621 457 245.754 456.6 244.006 455.811L204.75 437.882C120.46 399.386 66 315.165 66 223.314V93.875C66 87.2826 71.0026 81.7384 77.6217 80.9927C103.508 78.0639 129.526 73.7734 154.932 68.2401C185.395 61.6044 215.738 53.0234 245.131 42.7457C247.96 41.7514 251.04 41.7514 253.869 42.7457C283.262 53.0234 313.605 61.6044 344.068 68.2401C369.474 73.7734 395.492 78.0639 421.378 80.9927C427.997 81.7384 433 87.2826 433 93.875V223.314C433 315.165 378.54 399.386 294.25 437.882L254.994 455.811C253.246 456.6 251.379 457 249.5 457ZM92.2143 105.363V223.314C92.2143 305.082 140.7 380.063 215.738 414.322L249.5 429.744L283.262 414.322C358.3 380.063 406.786 305.082 406.786 223.314V105.363C383.859 102.424 360.922 98.4681 338.432 93.5724C308.428 87.034 278.532 78.6799 249.5 68.7048C220.468 78.6799 190.572 87.034 160.568 93.5724C138.078 98.4681 115.141 102.424 92.2143 105.363Z" fill="#35455C"/>
</g>
<path d="M250.5 241C228.717 241 211 223.507 211 202C211 180.493 228.717 163 250.5 163C272.283 163 290 180.493 290 202C290 223.507 272.283 241 250.5 241ZM250.5 182.5C239.605 182.5 230.75 191.242 230.75 202C230.75 212.757 239.605 221.5 250.5 221.5C261.395 221.5 270.25 212.757 270.25 202C270.25 191.242 261.395 182.5 250.5 182.5Z" fill="#35455C"/>
<path d="M280 326H250C244.475 326 240 321.728 240 316.455V230.545C240 225.272 244.475 221 250 221C255.525 221 260 225.272 260 230.545V306.909H280C285.525 306.909 290 311.181 290 316.455C290 321.728 285.525 326 280 326Z" fill="#35455C"/>
<path d="M280 290H250C244.475 290 240 285.525 240 280C240 274.475 244.475 270 250 270H280C285.525 270 290 274.475 290 280C290 285.525 285.525 290 280 290Z" fill="#35455C"/>
<mask id="mask1_23_37" style="mask-type:luminance" maskUnits="userSpaceOnUse" x="244" y="428" width="11" height="10">
<path d="M244.195 428.048H254.034V437.699H244.195V428.048Z" fill="white"/>
</mask>
<g mask="url(#mask1_23_37)">
<path d="M254.034 437.699H244.195V428.048H254.034V437.699ZM244.257 437.639H253.973V428.108H244.257V437.639Z" fill="black"/>
</g>
<path d="M205.515 102.243H221.47V103.532H218.178V148.803H221.47V150.092H203.232V148.803H206.523V106.075H206.286L197.33 150.092H189.857L179.329 105.872H179.092V148.803H182.384V150.092H174.229V148.803H177.52V103.532H174.229V102.243H190.391L198.338 137.443L205.515 102.243Z" fill="#0B4A8E"/>
<path d="M248.798 148.805L244.439 134.02H232.606L227.98 148.805H232.488V150.094H223.324V148.805H226.141L241.384 101.838H246.278L261.343 148.805H264.101V150.094H244.558V148.805H248.798ZM238.745 114.623L233.14 132.528H243.964L238.745 114.623Z" fill="#0B4A8E"/>
<path d="M297.877 102.245V103.737L280.173 148.533H282.219C285.793 148.533 288.951 147.228 291.679 144.6C294.407 141.98 296.372 138.25 297.581 133.409H298.648L297.936 150.093H267.332V148.805L285.214 103.737H282.753C279.194 103.737 276.496 104.635 274.657 106.416C272.833 108.179 270.772 111.825 268.459 117.335H267.391L268.281 102.245H297.877Z" fill="#0B4A8E"/>
<path d="M302.287 102.244H333.396L333.989 115.775H332.921C331.238 111.163 329.481 108.009 327.643 106.313C325.804 104.601 323.113 103.736 319.576 103.736H317.471V124.863H319.517C321.393 124.863 322.964 124.066 324.232 122.455C325.515 120.827 326.412 118.649 326.931 115.91H327.82V136.155H326.812C326.1 132.747 325.129 130.314 323.906 128.864C322.698 127.398 321.037 126.66 318.924 126.66H317.471V148.601H319.754C323.409 148.601 326.523 147.346 329.096 144.837C331.683 142.327 333.455 139.123 334.404 135.206H335.59L335.116 150.093H302.287V148.601H305.816V103.736H302.287V102.244Z" fill="#0B4A8E"/>
<path d="M212.432 376.406L224.074 344.324H218.834V343.114H229.083V344.324H225.932L209.812 388.659H204.206L187.157 344.324H184.072V343.114H205.931V344.324H201.188L212.432 376.406Z" fill="#0B4A8E"/>
<path d="M230.469 343.113H250.138C256.855 343.113 261.863 344.052 265.164 345.914C268.481 347.76 270.139 351.086 270.139 355.876C270.139 361.183 268.124 364.844 264.102 366.857C260.363 368.687 255.13 369.594 248.413 369.594H247.849V386.812H256.208V388.022H230.469V386.812H234.814V344.323H230.469V343.113ZM247.849 344.323V368.384H249.276C251.946 368.384 253.795 367.517 254.815 365.774C255.827 364.016 256.341 361.159 256.341 357.213V354.157C256.341 350.513 255.86 347.967 254.914 346.519C253.961 345.055 252.211 344.323 249.674 344.323H247.849Z" fill="#0B4A8E"/>
<path d="M311.311 344.323V388.022H301.957L279.037 346.519V386.812H282.719V388.022H273.531V386.812H277.213V344.323H273.531V343.113H292.007L309.52 375.323V344.323H305.838V343.113H314.993V344.323H311.311Z" fill="#0B4A8E"/>
</svg>
