<svg width="150" height="150" viewBox="0 0 150 150" fill="none" xmlns="http://www.w3.org/2000/svg">
<mask id="mask0_16_267" style="mask-type:luminance" maskUnits="userSpaceOnUse" x="106" y="108" width="3" height="3">
<path d="M106.721 108.603H108.221V110.887H106.721V108.603Z" fill="white"/>
</mask>
<g mask="url(#mask0_16_267)">
<path d="M106.721 108.603H108.221V110.889H106.721V108.603Z" fill="#1177E5"/>
</g>
<path d="M40.9305 48.0139C40.7539 48.0139 40.5758 47.9951 40.4008 47.9592C40.2305 47.9248 40.0617 47.8732 39.8961 47.8061C39.7352 47.7373 39.5773 47.6545 39.432 47.5576C39.2836 47.4607 39.1461 47.3467 39.0227 47.2232C38.8977 47.0982 38.7852 46.9607 38.6852 46.8123C38.5867 46.667 38.5039 46.5092 38.4367 46.3451C38.3695 46.1826 38.318 46.0139 38.282 45.8404C38.2477 45.6686 38.2305 45.4904 38.2305 45.3139C38.2305 45.1389 38.2477 44.9607 38.282 44.7857C38.318 44.6154 38.3695 44.4451 38.4367 44.2811C38.5039 44.1186 38.5867 43.9623 38.6852 43.817C38.7852 43.6686 38.8977 43.5311 39.0227 43.4061C39.1461 43.2826 39.2836 43.1686 39.432 43.0686C39.5773 42.9717 39.7352 42.8873 39.8961 42.8201C40.0617 42.7529 40.2305 42.7014 40.4008 42.667C40.7492 42.5967 41.1086 42.5967 41.457 42.667C41.6289 42.7014 41.7992 42.7529 41.9617 42.8201C42.1258 42.8873 42.282 42.9717 42.4273 43.0686C42.5758 43.1686 42.7148 43.2826 42.8383 43.4061C42.9617 43.5311 43.0758 43.6686 43.1727 43.817C43.2695 43.9623 43.3539 44.1186 43.4211 44.2811C43.4883 44.4451 43.5398 44.6154 43.5758 44.7857C43.6102 44.9607 43.6289 45.1389 43.6289 45.3139C43.6289 45.4904 43.6102 45.6686 43.5758 45.8404C43.5398 46.0139 43.4883 46.1826 43.4211 46.3451C43.3539 46.5092 43.2695 46.667 43.1727 46.8123C43.0758 46.9607 42.9617 47.0982 42.8383 47.2232C42.7148 47.3467 42.5758 47.4607 42.4273 47.5576C42.282 47.6545 42.1258 47.7373 41.9617 47.8061C41.7992 47.8732 41.6289 47.9248 41.457 47.9592C41.2836 47.9951 41.1055 48.0139 40.9305 48.0139Z" fill="#1177E5"/>
<path d="M40.9289 39.9154C39.4383 39.9154 38.2305 38.7076 38.2305 37.217V26.4217C38.2305 24.9311 39.4383 23.7217 40.9289 23.7217C42.4195 23.7217 43.6289 24.9311 43.6289 26.4217V37.217C43.6289 38.7076 42.4195 39.9154 40.9289 39.9154Z" fill="#1177E5"/>
<path d="M74.9984 126.281C46.7219 126.281 23.7188 103.278 23.7188 75.0029C23.7188 68.0904 25.0719 61.3811 27.7422 55.0592C28.3219 53.6873 29.9047 53.0436 31.2781 53.6232C32.6516 54.2029 33.2938 55.7873 32.7141 57.1592C30.3266 62.8123 29.1156 68.8154 29.1156 75.0014C29.1156 100.301 49.6984 120.884 74.9984 120.884C100.297 120.884 120.88 100.301 120.88 75.0014C120.88 49.7029 100.297 29.1201 74.9984 29.1201C68.3375 29.1201 61.9172 30.5154 55.9156 33.2654C54.5609 33.8873 52.9578 33.292 52.3375 31.9373C51.7156 30.5826 52.3109 28.9795 53.6656 28.3592C60.3797 25.2826 67.5563 23.7217 74.9984 23.7217C103.273 23.7217 126.278 46.7264 126.278 75.0014C126.278 103.278 103.273 126.281 74.9984 126.281Z" fill="#1177E5"/>
<path d="M74.9988 112.788C54.1629 112.788 37.2129 95.8376 37.2129 75.0032C37.2129 67.7626 39.2676 60.7267 43.1551 54.6548C43.9598 53.4001 45.6285 53.0329 46.8848 53.8376C48.1395 54.6407 48.5051 56.3095 47.702 57.5657C44.3707 62.7657 42.6113 68.7954 42.6113 75.0017C42.6113 92.8595 57.1395 107.389 74.9988 107.389C92.8566 107.389 107.385 92.8595 107.385 75.0017C107.385 57.1438 92.8566 42.6157 74.9988 42.6157C70.6629 42.6157 66.4598 43.4563 62.5035 45.1142C61.1285 45.6907 59.5473 45.0438 58.9707 43.6704C58.3941 42.2954 59.0426 40.7142 60.416 40.1376C65.0363 38.2001 69.9426 37.2173 74.9973 37.2173C95.8332 37.2173 112.783 54.1673 112.783 75.0032C112.783 95.8376 95.8332 112.788 74.9988 112.788Z" fill="#1177E5"/>
<path d="M74.9988 48.0126C73.5082 48.0126 72.2988 46.8048 72.2988 45.3142V39.9157C72.2988 38.4251 73.5082 37.2173 74.9988 37.2173C76.4895 37.2173 77.6973 38.4251 77.6973 39.9157V45.3142C77.6973 46.8048 76.4895 48.0126 74.9988 48.0126Z" fill="#1177E5"/>
<path d="M45.3098 77.7017H39.9129C38.4223 77.7017 37.2129 76.4923 37.2129 75.0017C37.2129 73.511 38.4223 72.3032 39.9129 72.3032H45.3098C46.8004 72.3032 48.0098 73.511 48.0098 75.0017C48.0098 76.4923 46.8004 77.7017 45.3098 77.7017Z" fill="#1177E5"/>
<path d="M74.9988 112.788C73.5082 112.788 72.2988 111.578 72.2988 110.088V104.691C72.2988 103.2 73.5082 101.992 74.9988 101.992C76.4895 101.992 77.6973 103.2 77.6973 104.691V110.088C77.6973 111.578 76.4895 112.788 74.9988 112.788Z" fill="#1177E5"/>
<path d="M99.8072 102.511C99.1166 102.511 98.426 102.247 97.8979 101.72L94.0822 97.9029C93.0275 96.8482 93.0275 95.1404 94.0807 94.0857C95.1354 93.0326 96.8447 93.0326 97.8979 94.0857L101.715 97.9029C102.768 98.9561 102.77 100.665 101.715 101.72C101.188 102.247 100.498 102.511 99.8072 102.511Z" fill="#1177E5"/>
<path d="M110.085 77.7017H104.687C103.196 77.7017 101.988 76.4923 101.988 75.0017C101.988 73.511 103.196 72.3032 104.687 72.3032H110.085C111.576 72.3032 112.784 73.511 112.784 75.0017C112.784 76.4923 111.576 77.7017 110.085 77.7017Z" fill="#1177E5"/>
<path d="M94.0822 55.9186C93.0275 54.8639 93.0275 53.1545 94.0807 52.1014L97.8979 48.2842C98.9525 47.2295 100.66 47.2295 101.715 48.2842C102.768 49.3373 102.77 51.0467 101.715 52.1014L97.8979 55.9186C96.8447 56.9717 95.1354 56.9717 94.0822 55.9186Z" fill="#1177E5"/>
<path d="M50.1969 102.502C49.5062 102.502 48.8156 102.239 48.2891 101.711C47.2344 100.658 47.2344 98.9484 48.2891 97.8937L52.1047 94.0781C53.1594 93.0234 54.8688 93.0234 55.9219 94.0781C56.9766 95.1312 56.9766 96.8406 55.9219 97.8937L52.1063 101.711C51.5781 102.239 50.8875 102.502 50.1969 102.502Z" fill="#1177E5"/>
<path d="M74.9992 83.0984C70.5336 83.0984 66.9023 79.4672 66.9023 75.0031C66.9023 70.5375 70.5336 66.9062 74.9992 66.9062C79.4633 66.9062 83.0961 70.5375 83.0961 75.0031C83.0961 79.4672 79.4633 83.0984 74.9992 83.0984ZM74.9992 72.3031C73.5102 72.3031 72.2992 73.5141 72.2992 75.0016C72.2992 76.4906 73.5102 77.7016 74.9992 77.7016C76.4867 77.7016 77.6977 76.4906 77.6977 75.0016C77.6977 73.5141 76.4867 72.3031 74.9992 72.3031Z" fill="#1177E5"/>
<path d="M69.6 77.7017H61.5031C60.0125 77.7017 58.8047 76.4923 58.8047 75.0017C58.8047 73.511 60.0125 72.3032 61.5031 72.3032H69.6C71.0906 72.3032 72.2984 73.511 72.2984 75.0017C72.2984 76.4923 71.0906 77.7017 69.6 77.7017Z" fill="#1177E5"/>
<path d="M74.9988 72.3033C73.5082 72.3033 72.2988 71.0955 72.2988 69.6049V56.1096C72.2988 54.6189 73.5082 53.4111 74.9988 53.4111C76.4895 53.4111 77.6973 54.6189 77.6973 56.1096V69.6049C77.6973 71.0955 76.4895 72.3033 74.9988 72.3033Z" fill="#1177E5"/>
<mask id="mask1_16_267" style="mask-type:luminance" maskUnits="userSpaceOnUse" x="14" y="10" width="54" height="50">
<path d="M14.4004 10.2236H67.2004V59.2002H14.4004V10.2236Z" fill="white"/>
</mask>
<g mask="url(#mask1_16_267)">
<path d="M58.0413 58.8093H23.8178C20.5319 58.8093 17.5803 57.114 15.9241 54.2765C14.2678 51.439 14.2428 48.0358 15.8584 45.1749L32.9709 14.8655C34.6131 11.9562 37.5881 10.2202 40.9288 10.2202C44.2709 10.2202 47.2459 11.9562 48.8881 14.8655L66.0006 45.1749C67.6163 48.0358 67.5913 51.439 65.935 54.2765C64.2788 57.114 61.3272 58.8093 58.0413 58.8093ZM20.5584 47.828C19.8866 49.0171 19.8975 50.3765 20.585 51.5546C21.2741 52.7343 22.4522 53.4108 23.8178 53.4108H58.0413C59.4069 53.4108 60.585 52.7343 61.2741 51.5546C61.9616 50.3765 61.9709 49.0171 61.3006 47.828L44.1881 17.5202C43.5147 16.328 42.2975 15.6171 40.9288 15.6171C39.5616 15.6171 38.3428 16.328 37.6709 17.5202L20.5584 47.828Z" fill="#1177E5"/>
</g>
<mask id="mask2_16_267" style="mask-type:luminance" maskUnits="userSpaceOnUse" x="10" y="120" width="130" height="20">
<path d="M10.2227 120.8H139.823V139.823H10.2227V120.8Z" fill="white"/>
</mask>
<g mask="url(#mask2_16_267)">
<path d="M137.073 139.776H12.9211C11.4305 139.776 10.2227 138.567 10.2227 137.078V123.583C10.2227 122.092 11.4305 120.884 12.9211 120.884H137.073C138.563 120.884 139.771 122.092 139.771 123.583V137.078C139.771 138.567 138.563 139.776 137.073 139.776ZM15.6211 134.378H134.374V126.281H15.6211V134.378Z" fill="#1177E5"/>
</g>
<mask id="mask3_16_267" style="mask-type:luminance" maskUnits="userSpaceOnUse" x="118" y="120" width="6" height="20">
<path d="M118 120.8H123.6V139.823H118V120.8Z" fill="white"/>
</mask>
<g mask="url(#mask3_16_267)">
<path d="M120.88 139.776C119.389 139.776 118.182 138.567 118.182 137.078V123.583C118.182 122.092 119.389 120.884 120.88 120.884C122.371 120.884 123.579 122.092 123.579 123.583V137.078C123.579 138.567 122.371 139.776 120.88 139.776Z" fill="#1177E5"/>
</g>
</svg>
