<svg width="150" height="160" viewBox="0 0 150 160" fill="none" xmlns="http://www.w3.org/2000/svg">
<mask id="mask0_15_221" style="mask-type:luminance" maskUnits="userSpaceOnUse" x="15" y="38" width="120" height="84">
<path d="M15.4883 38.3999H134.401V121.782H15.4883V38.3999Z" fill="white"/>
</mask>
<g mask="url(#mask0_15_221)">
<path d="M21.0543 97.4163C20.4527 97.2897 19.8637 97.083 19.2684 96.9163C16.8684 96.248 16.8465 96.238 16.473 98.8647C16.1324 101.256 15.8574 103.646 15.5449 106.038V113.95C15.6184 114.385 15.709 114.82 15.7637 115.258C15.984 117.008 16.2324 118.755 16.398 120.511C16.5121 121.688 16.7746 121.751 18.5887 121.661C19.5559 121.615 19.2934 120.826 19.323 120.19C19.5137 116.256 19.5168 112.3 19.9746 108.401C20.3402 105.288 21.2262 102.236 21.9684 99.183C22.223 98.1497 22.0449 97.6213 21.0543 97.4163ZM92.0777 38.6013C91.1215 38.268 90.4434 38.768 90.0355 39.718C89.923 39.9813 89.8059 40.2397 89.6871 40.498C82.6887 55.758 75.6902 71.0163 68.6934 86.2763C65.6949 92.8163 62.6605 99.3397 59.7137 105.906C56.5012 113.065 60.898 120.953 68.0574 120.975C72.8715 120.99 76.498 117.646 77.6668 112.203C80.6277 98.413 83.6012 84.6263 86.5871 70.8413C88.7418 60.863 90.898 50.883 93.0574 40.9047C93.2934 39.8297 93.0949 38.9663 92.0777 38.6013ZM68.4277 115.486C68.1215 115.481 67.8199 115.445 67.5215 115.375C67.223 115.306 66.934 115.206 66.6527 115.078C66.373 114.948 66.1074 114.791 65.8559 114.606C65.6043 114.421 65.373 114.211 65.159 113.978C64.9465 113.743 64.7574 113.49 64.5918 113.216C64.4246 112.943 64.2855 112.655 64.173 112.353C64.059 112.05 63.9746 111.738 63.9184 111.418C63.8637 111.098 63.8371 110.775 63.8402 110.45C63.8449 110.123 63.8777 109.801 63.9402 109.483C64.0043 109.163 64.0949 108.855 64.2152 108.555C64.334 108.255 64.4809 107.971 64.6527 107.701C64.8246 107.433 65.0199 107.185 65.2387 106.956C65.4559 106.728 65.6918 106.525 65.948 106.345C66.2027 106.166 66.473 106.016 66.7559 105.895C67.0387 105.771 67.3309 105.68 67.6309 105.618C67.9293 105.556 68.2324 105.528 68.5387 105.53C68.8434 105.531 69.1465 105.565 69.4449 105.631C69.7449 105.696 70.034 105.791 70.3168 105.918C70.598 106.045 70.8652 106.198 71.1184 106.381C71.3715 106.563 71.6059 106.77 71.8215 107.001C72.0355 107.231 72.2277 107.483 72.3965 107.755C72.5668 108.026 72.709 108.313 72.8246 108.613C72.9418 108.915 73.0293 109.225 73.0887 109.545C73.1465 109.865 73.1762 110.186 73.1762 110.513C73.1762 110.843 73.1449 111.17 73.0824 111.495C73.0215 111.818 72.9309 112.131 72.8105 112.436C72.6902 112.741 72.5434 113.03 72.3699 113.303C72.1965 113.576 71.998 113.828 71.7777 114.06C71.5559 114.291 71.3168 114.498 71.0574 114.678C70.798 114.858 70.5246 115.01 70.2371 115.133C69.9496 115.255 69.6527 115.346 69.348 115.406C69.0434 115.465 68.7371 115.493 68.4277 115.486ZM127.448 88.2363C127.761 88.1013 127.993 87.7597 128.231 87.5363C128.089 87.153 128.017 86.9197 127.918 86.703C123.518 76.728 117.311 68.3047 109.171 61.5063C108.448 60.903 107.954 60.8697 107.342 61.673C104.043 65.9747 100.725 70.2563 97.3855 74.5197C96.7605 75.3047 96.9168 75.7847 97.5152 76.493C98.9965 78.223 100.464 79.9813 101.779 81.853C104.571 85.8447 106.678 90.2113 108.101 94.9547C108.328 95.698 108.548 96.3647 109.548 95.9313C115.511 93.3513 121.484 90.8063 127.448 88.2363ZM131.073 95.2713C130.734 94.103 130.265 93.9047 129.234 94.2247C123.089 96.133 116.934 98.0047 110.768 99.838C109.756 100.14 109.517 100.625 109.656 101.686C109.948 103.925 110.209 106.178 110.315 108.435C110.526 112.86 110.001 117.223 109.026 121.581C109.271 121.63 109.518 121.663 109.767 121.681C117.493 121.681 125.218 121.668 132.942 121.703C134.082 121.703 134.161 121.025 134.187 120.125C134.325 115.916 134.132 111.728 133.611 107.555C133.087 103.383 132.242 99.2863 131.073 95.2647V95.2713ZM67.6434 59.4313C67.4871 56.893 67.2371 53.2797 67.0324 49.6647C66.9809 48.7697 66.6684 48.4097 65.8012 48.528C63.4262 48.8447 61.0793 49.3197 58.7605 49.9513C56.4434 50.583 54.1699 51.368 51.9449 52.3047C49.7184 53.2413 47.5559 54.3247 45.459 55.5513C43.3605 56.7797 41.3418 58.143 39.4059 59.6413C38.5777 60.278 38.5449 60.8097 39.1105 61.6647C40.5387 63.813 41.9355 65.988 43.2637 68.2063C43.848 69.1813 44.3496 69.3013 45.3137 68.7313C48.4262 66.8797 51.7012 65.4513 55.1387 64.448C58.5762 63.4447 62.0777 62.8947 65.6402 62.798C67.8215 62.7313 67.8324 63.053 67.6434 59.4313ZM35.0777 65.273C34.4121 64.403 33.8605 64.4197 33.2199 65.228C30.7824 68.3013 28.1855 71.238 25.9449 74.473C22.7621 79.0563 20.4762 84.173 18.723 89.5713C18.3934 90.5863 18.5934 91.088 19.5371 91.423C20.7402 91.8497 21.9168 92.3697 23.0965 92.8713C23.8027 93.1697 24.2402 92.9747 24.5777 92.2313C28.109 84.4713 33.0465 77.9363 39.4871 72.713C39.748 72.5013 39.9434 72.1997 40.2105 71.8913C39.9559 71.508 39.7777 71.198 39.5605 70.9213C38.0668 69.0413 36.5355 67.1863 35.0777 65.2713V65.273ZM102.531 56.7613C99.7215 55.1863 96.8809 53.668 93.9434 52.073C93.7762 52.6247 93.6934 52.8413 93.6434 53.0747C92.6668 57.5547 91.6918 62.033 90.7199 66.5097C89.9652 69.9647 89.9699 69.943 92.7168 72.018C93.409 72.5463 93.8668 72.4997 94.3184 71.728C95.0355 70.5097 95.7887 69.3163 96.5277 68.1147C98.5371 64.853 100.546 61.5913 102.556 58.3297C102.89 57.7897 103.27 57.1713 102.531 56.758V56.7613ZM75.3434 63.6697C75.4074 63.6797 75.4824 63.6197 75.6309 63.563L82.4434 48.7063C79.2855 48.498 76.3402 48.273 73.3887 48.1647C73.1277 48.1647 72.6309 48.9097 72.6074 49.333C72.3934 52.6947 72.2449 56.063 72.123 59.4313C71.9887 63.0747 72.0105 63.0763 75.3434 63.6697Z" fill="#1177E5"/>
</g>
<mask id="mask1_15_221" style="mask-type:luminance" maskUnits="userSpaceOnUse" x="118" y="99" width="11" height="20">
<path d="M118.41 99.29H128.345V118.892H118.41V99.29Z" fill="white"/>
</mask>
<g mask="url(#mask1_15_221)">
<path d="M118.41 99.29H128.345V118.912H118.41V99.29Z" fill="#1177E5"/>
</g>
</svg>
