<svg width="150" height="160" viewBox="0 0 150 160" fill="none" xmlns="http://www.w3.org/2000/svg">
<path d="M122.723 117.73H110.755C109.432 117.73 108.359 116.64 108.359 115.287C108.359 113.938 109.428 112.848 110.755 112.848H122.723C124.041 112.848 125.114 113.938 125.114 115.287C125.114 116.64 124.041 117.73 122.723 117.73Z" fill="#00BF63"/>
<path d="M110.755 117.73C109.432 117.73 108.359 116.64 108.359 115.287V103.081C108.359 101.733 109.428 100.643 110.755 100.643C112.073 100.643 113.146 101.733 113.146 103.081V115.287C113.142 116.64 112.073 117.73 110.755 117.73Z" fill="#00BF63"/>
<mask id="mask0_14_207" style="mask-type:luminance" maskUnits="userSpaceOnUse" x="86" y="90" width="49" height="50">
<path d="M86.7383 90.8486H134.999V140H86.7383V90.8486Z" fill="white"/>
</mask>
<g mask="url(#mask0_14_207)">
<path d="M110.751 139.703C97.5492 139.703 86.8105 128.751 86.8105 115.286C86.8105 101.827 97.5492 90.8745 110.751 90.8745C123.948 90.8745 134.687 101.827 134.687 115.286C134.687 128.751 123.948 139.703 110.751 139.703ZM110.751 95.7604C100.19 95.7604 91.5969 104.524 91.5969 115.286C91.5969 126.053 100.19 134.817 110.751 134.817C121.308 134.817 129.896 126.053 129.896 115.286C129.896 104.524 121.304 95.7604 110.751 95.7604Z" fill="#00BF63"/>
</g>
<mask id="mask1_14_207" style="mask-type:luminance" maskUnits="userSpaceOnUse" x="15" y="20" width="115" height="119">
<path d="M15 20H129.999V138.277H15V20Z" fill="white"/>
</mask>
<g mask="url(#mask1_14_207)">
<path d="M72.4531 137.265C40.7736 137.265 15 110.978 15 78.669C15 46.3638 40.7736 20.0776 72.4531 20.0776C104.128 20.0776 129.902 46.3638 129.902 78.669C129.902 80.3407 129.83 82.0555 129.691 83.7616C129.577 85.1102 128.411 86.0796 127.101 85.9891C125.783 85.8771 124.807 84.6923 124.921 83.348C125.048 81.7797 125.116 80.2071 125.116 78.669C125.116 49.0523 101.492 24.9592 72.4531 24.9592C43.4182 24.9592 19.7906 49.0523 19.7906 78.669C19.7906 108.29 43.4097 132.379 72.4531 132.379C75.3596 132.379 78.2787 132.137 81.1387 131.651C82.4441 131.427 83.6776 132.327 83.8889 133.658C84.1043 134.99 83.2256 136.248 81.9202 136.468C78.8026 136.997 75.6215 137.265 72.4531 137.265Z" fill="#00BF63"/>
</g>
<path d="M77.1681 136.972C76.5091 136.972 75.8458 136.696 75.3727 136.149C74.4982 135.14 74.5911 133.598 75.5839 132.706C76.5302 131.849 77.4511 130.966 78.3467 130.061C79.2803 129.109 80.8012 129.121 81.7305 130.074C82.6599 131.03 82.6557 132.577 81.7179 133.525C80.7589 134.494 79.7704 135.442 78.7565 136.36C78.3002 136.773 77.7299 136.972 77.1681 136.972Z" fill="#00BF63"/>
<path d="M101.139 83.5546C101.113 83.5546 101.088 83.5546 101.058 83.5546C99.7402 83.5115 98.7052 82.3827 98.7432 81.0341C98.7728 80.2543 98.7813 79.4615 98.7813 78.6731C98.7813 57.3632 90.5435 38.1774 75.5888 24.6487C74.6002 23.7569 74.5115 22.2144 75.3902 21.2019C76.2647 20.1937 77.7813 20.1033 78.7698 20.9994C94.7595 35.4674 103.568 55.95 103.568 78.6731C103.568 79.5175 103.555 80.3577 103.53 81.1978C103.487 82.5076 102.427 83.5546 101.139 83.5546Z" fill="#00BF63"/>
<path d="M67.7182 136.971C67.1521 136.971 66.5861 136.773 66.1298 136.36C50.3725 122.107 41.332 101.077 41.332 78.6686C41.332 55.9542 50.1443 35.4673 66.1383 20.995C67.1268 20.0989 68.6392 20.1936 69.5179 21.1975C70.3966 22.21 70.3036 23.7482 69.3193 24.6486C54.3562 38.1816 46.1226 57.3631 46.1226 78.6686C46.1226 99.9957 54.3562 119.186 69.3109 132.706C70.2994 133.602 70.3923 135.145 69.5094 136.157C69.0363 136.7 68.3773 136.971 67.7182 136.971Z" fill="#00BF63"/>
<mask id="mask2_14_207" style="mask-type:luminance" maskUnits="userSpaceOnUse" x="69" y="20" width="6" height="119">
<path d="M69.4375 20H74.8449V138.277H69.4375V20Z" fill="white"/>
</mask>
<g mask="url(#mask2_14_207)">
<path d="M72.4519 137.265C71.1297 137.265 70.0566 136.17 70.0566 134.822V22.5206C70.0566 21.1677 71.1254 20.0776 72.4519 20.0776C73.77 20.0776 74.843 21.1677 74.843 22.5206V134.822C74.8388 136.17 73.77 137.265 72.4519 137.265Z" fill="#00BF63"/>
</g>
<path d="M117.929 51.8137H26.9676C25.6495 51.8137 24.5723 50.7236 24.5723 49.3707C24.5723 48.0222 25.6453 46.9321 26.9676 46.9321H117.929C119.252 46.9321 120.325 48.0222 120.325 49.3707C120.325 50.7236 119.256 51.8137 117.929 51.8137Z" fill="#00BF63"/>
<path d="M77.3869 110.405H26.9676C25.6495 110.405 24.5723 109.315 24.5723 107.962C24.5723 106.614 25.6453 105.52 26.9676 105.52H77.3869C78.7092 105.52 79.7822 106.614 79.7822 107.962C79.7822 109.315 78.7092 110.405 77.3869 110.405Z" fill="#00BF63"/>
<mask id="mask3_14_207" style="mask-type:luminance" maskUnits="userSpaceOnUse" x="15" y="75" width="115" height="8">
<path d="M15 75.4072H129.999V82.0251H15V75.4072Z" fill="white"/>
</mask>
<g mask="url(#mask3_14_207)">
<path d="M127.503 81.1114H17.3953C16.073 81.1114 15 80.0214 15 78.6685C15 77.3199 16.0688 76.2256 17.3953 76.2256H127.507C128.829 76.2256 129.902 77.3199 129.902 78.6685C129.898 80.0171 128.829 81.1114 127.503 81.1114Z" fill="#00BF63"/>
</g>
</svg>
